{"title":"Dont.Be.Afraid.Of.The.Dark.2011.KRSUB.HDRip-P2P","uid":6704953,"size":1040706707,"categoryP":"video","categoryS":"movies","magnet":"?xt=urn:btih:dee2d4fd550d2e20a990a6911c1a1b607270a0e3&amp;dn=Dont.Be.Afraid.Of.The.Dark.2011.KRSUB.HDRip-P2P&amp;tr=udp%3A%2F%2Ftracker.openbittorrent.com%3A80&amp;tr=udp%3A%2F%2Fopen.demonii.com%3A1337&amp;tr=udp%3A%2F%2Ftracker.coppersurfer.tk%3A6969&amp;tr=udp%3A%2F%2Fexodus.desync.com%3A6969","seeders":0,"leechers":0,"uploader":"TvTeam","files":5,"time":1317119667,"description":". \n  &lt;a href=&quot;\nhttp://www.torrenting.com/&quot; rel=&quot;nofollow&quot; target=&quot;_NEW&quot;&gt;\nhttp://www.torrenting.com/&lt;/a&gt;        :     Greatest Movie Tracker on The Net!!!\n &lt;a href=&quot;\nhttp://www.Torrenting.com&quot; rel=&quot;nofollow&quot; target=&quot;_NEW&quot;&gt;\nhttp://www.Torrenting.com&lt;/a&gt;          :     Once &amp; For all ;)\n\n\n               www . Torrenting . Com \n\n(((((((((((((= Enjoy No RAR releases =))))))))))))))))))))\n\n\n...................................NFO:....................................\n\n.Dont Be Afraid Of The Dark 2011 KORSUBBED HDRIP-P2P\n &lt;a href=&quot;\nhttp://www.imdb.com/title/tt1270761/&quot; rel=&quot;nofollow&quot; target=&quot;_NEW&quot;&gt;\nhttp://www.imdb.com/title/tt1270761/&lt;/a&gt;\n\nPlot:\n\nA young girl sent to live with her father and his new girlfriend discovers creatures in her new home who want to claim her as one of their own.\n\n\nVideo\nID                               : 0\nFormat                           : MPEG-4 Visual\nFormat settings, BVOP            : Yes\nFormat settings, QPel            : No\nFormat settings, GMC             : No warppoints\nFormat settings, Matrix          : Default (H.263)\nMuxing mode                      : Packed bitstream\nCodec ID                         : DX50\nCodec ID/Hint                    : DivX 5\nDuration                         : 1h 39mn\nBit rate                         : 77.6 Kbps\nWidth                            : 720 pixels\nHeight                           : 480 pixels\nDisplay aspect ratio             : 3:2\nFrame rate                       : 23.976 fps\nStandard                         : NTSC\nColor space                      : YUV\nChroma subsampling               : 4:2:0\nBit depth                        : 8 bits\nScan type                        : Progressive\nBits/(Pixel*Frame)               : 0.009\nStream size                      : 55.2 MiB (35%)\nTitle                            : Video \nWriting library                  : DivX 3013\n\nAudio\nID                               : 1\nFormat                           : MPEG Audio\nFormat version                   : Version 1\nFormat profile                   : Layer 3\nCodec ID                         : 55\nCodec ID/Hint                    : MP3\nDuration                         : 1h 39mn\nBit rate mode                    : Constant\nBit rate                         : 128 Kbps\nChannel(s)                       : 2 channels\nSampling rate                    : 48.0 KHz\nStream size                      : 91.0 MiB (57%)\nAlignment                        : Split accross interleaves\nTitle                            : Audio \n\nNOTES: English audio, hardcoded korean subs","torrent":{"xt":"urn:btih:dee2d4fd550d2e20a990a6911c1a1b607270a0e3","amp;dn":"Dont.Be.Afraid.Of.The.Dark.2011.KRSUB.HDRip-P2P","amp;tr":["udp%3A%2F%2Ftracker.openbittorrent.com%3A80","udp%3A%2F%2Fopen.demonii.com%3A1337","udp%3A%2F%2Ftracker.coppersurfer.tk%3A6969","udp%3A%2F%2Fexodus.desync.com%3A6969"],"infoHash":"dee2d4fd550d2e20a990a6911c1a1b607270a0e3","infoHashBuffer":{"type":"Buffer","data":[222,226,212,253,85,13,46,32,169,144,166,145,28,26,27,96,114,112,160,227]},"announce":[],"urlList":[]}}